<svg width="280" height="280" viewBox="0 0 280 280" fill="none" xmlns="http://www.w3.org/2000/svg">
<rect width="280" height="280" rx="140" fill="black"/>
<path d="M129.386 61C126.41 61 123.83 60.9995 118.437 72.3634C113.045 83.7272 51.8114 204.642 51.3558 205.558C47.8698 212.567 52.1658 216.862 52.512 217.21C52.8582 217.557 56.5075 221.205 63.6915 217.894C65.5571 217.034 220.364 145.263 220.364 145.263C226.876 141.989 228.493 143.121 228.898 143.404C229.302 143.688 230.933 144.83 229.261 151.493C227.692 156.531 209.708 208.105 208.532 210.837C205.884 216.99 203.91 216.993 202.922 216.99C201.935 216.987 199.836 216.99 197.492 210.837C197.492 210.837 145.468 83.7269 140.651 72.3634C135.834 60.9998 132.363 61 129.386 61Z" stroke="white" stroke-width="17" stroke-linecap="square" stroke-linejoin="round"/>
</svg>
