<svg width="200" height="178" viewBox="0 0 200 178" fill="none" xmlns="http://www.w3.org/2000/svg">
<path d="M89.0234 9C88.4661 9 83.4652 9.07787 79.0069 17.4302C74.5487 25.7825 15.1987 144.168 11.5599 151.841C7.92107 159.514 8.38011 162.803 11.5597 165.983C14.7392 169.163 17.9431 169.536 25.7021 165.983L181.248 92.8494C187.843 89.5325 189.481 90.6796 189.891 90.9664C190.3 91.2532 191.952 92.4101 190.258 99.1588C188.67 104.262 170.453 156.5 169.262 159.268C166.581 165.5 164.581 165.503 163.581 165.5C162.581 165.497 160.455 165.5 158.081 159.268L99.5807 17.4302C95.8925 9 89.5807 9 89.0234 9Z" stroke="white" stroke-width="17" stroke-linecap="square" stroke-linejoin="round"/>
</svg>
